name C:\Users\u0101727\Documents\MyRepositories\upper-imu-dc\Results\main_tracking\Case_31\kinematics.mot
datacolumns 10
datarows 52
range 2.00000000 2.51000000
endheader 
time	clav_prot	clav_elev	scapula_abduction	scapula_elevation	scapula_upward_rot	scapula_winging	plane_elv	shoulder_elv	axial_rot	
          2.00000000	        -24.87528610	          4.19380740	          9.96967892	         -4.57580881	         52.21912970	         -5.01340057	         61.13506832	         71.00774172	        -21.61708918	
          2.01000000	        -25.07714892	          4.27874890	          9.95682019	         -4.55475505	         52.65877201	         -5.08602595	         60.93908079	         71.31262309	        -21.35839795	
          2.02000000	        -25.27325630	          4.35518031	          9.93919712	         -4.53710651	         53.07746944	         -5.15396024	         60.74558564	         71.62775151	        -21.05399361	
          2.03000000	        -25.46207282	          4.42260622	          9.91760911	         -4.52312728	         53.47285532	         -5.21687324	         60.55405874	         71.95365644	        -20.70718026	
          2.04000000	        -25.64343581	          4.48143943	          9.89218345	         -4.51266509	         53.84494045	         -5.27495661	         60.36433513	         72.28910608	        -20.32397464	
          2.05000000	        -25.81821430	          4.53303839	          9.86286822	         -4.50507292	         54.19597750	         -5.32889889	         60.17610590	         72.63124856	        -19.91397399	
          2.06000000	        -25.98780098	          4.57943629	          9.83000083	         -4.49932424	         54.52997508	         -5.37972944	         59.98839197	         72.97603178	        -19.49086577	
          2.07000000	        -26.15355530	          4.62285303	          9.79477937	         -4.49427143	         54.85193437	         -5.42857302	         59.79926104	         73.31886081	        -19.07211094	
          2.08000000	        -26.31633755	          4.66513414	          9.75946710	         -4.48896294	         55.16694350	         -5.47637927	         59.60594793	         73.65538521	        -18.67753568	
          2.09000000	        -26.47627096	          4.70725397	          9.72721721	         -4.48294031	         55.47932421	         -5.52369571	         59.40537629	         73.98223589	        -18.32688189	
          2.10000000	        -26.63280833	          4.74899560	          9.70152079	         -4.47644822	         55.79202752	         -5.57054278	         59.19493940	         74.29752037	        -18.03668266	
          2.11000000	        -26.78508103	          4.78891565	          9.68541040	         -4.47048424	         56.10641901	         -5.61643337	         58.97331625	         74.60094703	        -17.81711421	
          2.12000000	        -26.93241654	          4.82469290	          9.68063736	         -4.46660986	         56.42250018	         -5.66055703	         58.74107899	         74.89355455	        -17.66968819	
          2.13000000	        -27.07484151	          4.85386729	          9.68706632	         -4.46649904	         56.73946990	         -5.70209932	         58.50089673	         75.17716464	        -17.58662128	
          2.14000000	        -27.21336839	          4.87477704	          9.70249187	         -4.47133311	         57.05638448	         -5.74059704	         58.25724524	         75.45379651	        -17.55233684	
          2.15000000	        -27.34993490	          4.88732045	          9.72297183	         -4.48128402	         57.37264352	         -5.77618765	         58.01566543	         75.72527412	        -17.54680326	
          2.16000000	        -27.48701022	          4.89318412	          9.74361180	         -4.49533316	         57.68814962	         -5.80964378	         57.78175052	         75.99311270	        -17.54954012	
          2.17000000	        -27.62702553	          4.89542967	          9.75957479	         -4.51151563	         58.00317896	         -5.84218321	         57.56013298	         76.25860284	        -17.54281508	
          2.18000000	        -27.77185707	          4.89764387	          9.76700232	         -4.52746948	         58.31813654	         -5.87514741	         57.35373122	         76.52292744	        -17.51317219	
          2.19000000	        -27.92254974	          4.90302703	          9.76359025	         -4.54104730	         58.63339751	         -5.90968657	         57.16338864	         76.78716113	        -17.45142903	
          2.20000000	        -28.07932150	          4.91376198	          9.74875774	         -4.55075574	         58.94934345	         -5.94656090	         56.98785949	         77.05210333	        -17.35194963	
          2.21000000	        -28.24172295	          4.93084167	          9.72354507	         -4.55588761	         59.26653534	         -5.98609527	         56.82399209	         77.31804740	        -17.21209299	
          2.22000000	        -28.40878666	          4.95432993	          9.69040397	         -4.55634920	         59.58585892	         -6.02825661	         56.66700304	         77.58466498	        -17.03229729	
          2.23000000	        -28.57911842	          4.98387138	          9.65290724	         -4.55230672	         59.90851901	         -6.07279390	         56.51086544	         77.85110634	        -16.81656553	
          2.24000000	        -28.75099994	          5.01920978	          9.61529394	         -4.54382605	         60.23586270	         -6.11938468	         56.34890391	         78.11628934	        -16.57268442	
          2.25000000	        -28.92256915	          5.06052948	          9.58181329	         -4.53064219	         60.56907493	         -6.16774989	         56.17462055	         78.37928686	        -16.31164241	
          2.26000000	        -29.09207585	          5.10854411	          9.55595601	         -4.51211345	         60.90882658	         -6.21772030	         55.98263580	         78.63970332	        -16.04616385	
          2.27000000	        -29.25817430	          5.16435464	          9.53973520	         -4.48734412	         61.25499346	         -6.26925792	         55.76953853	         78.89791087	        -15.78864291	
          2.28000000	        -29.42020264	          5.22915787	          9.53317635	         -4.45541500	         61.60655418	         -6.32244678	         55.53444966	         79.15504345	        -15.54893446	
          2.29000000	        -29.57838129	          5.30390702	          9.53413351	         -4.41564396	         61.96169370	         -6.37746502	         55.27918160	         79.41274746	        -15.33249985	
          2.30000000	        -29.73386153	          5.38901862	          9.53848744	         -4.36780272	         62.31806037	         -6.43454502	         55.00796293	         79.67277906	        -15.13933473	
          2.31000000	        -29.88858406	          5.48419024	          9.54071579	         -4.31223951	         62.67309856	         -6.49392464	         54.72676456	         79.93656621	        -14.96394861	
          2.32000000	        -30.04494962	          5.58835135	          9.53476338	         -4.24989110	         63.02437907	         -6.55578919	         54.44231978	         80.20484507	        -14.79649436	
          2.33000000	        -30.20535617	          5.69973746	          9.51506427	         -4.18219510	         63.36986117	         -6.62020683	         54.16100262	         80.47745558	        -14.62493564	
          2.34000000	        -30.37171371	          5.81606034	          9.47748707	         -4.11093086	         63.70803936	         -6.68706932	         53.88780679	         80.75333918	        -14.43781574	
          2.35000000	        -30.54507025	          5.93474651	          9.41994696	         -4.03801983	         64.03794417	         -6.75605942	         53.62569702	         81.03074291	        -14.22689657	
          2.36000000	        -30.72544441	          6.05321431	          9.34252267	         -3.96531568	         64.35900033	         -6.82666236	         53.37549590	         81.30758699	        -13.98896303	
          2.37000000	        -30.91188388	          6.16913487	          9.24711600	         -3.89442476	         64.67081475	         -6.89821883	         53.13624349	         81.58188178	        -13.72644084	
          2.38000000	        -31.10270463	          6.28060591	          9.13685349	         -3.82660228	         64.97301776	         -6.96999765	         52.90579790	         81.85203524	        -13.44683099	
          2.39000000	        -31.29583563	          6.38619832	          9.01545440	         -3.76274420	         65.26525357	         -7.04126628	         52.68144244	         82.11693538	        -13.16117249	
          2.40000000	        -31.48918643	          6.48490357	          8.88670966	         -3.70344749	         65.54732378	         -7.11135034	         52.46036629	         82.37581008	        -12.88193437	
          2.41000000	        -31.68096606	          6.57605898	          8.75410806	         -3.64908007	         65.81939688	         -7.17968673	         52.23999826	         82.62797895	        -12.62088841	
          2.42000000	        -31.86991948	          6.65931975	          8.62055806	         -3.59981214	         66.08217045	         -7.24587973	         52.01825184	         82.87264016	        -12.38743635	
          2.43000000	        -32.05548267	          6.73470075	          8.48813372	         -3.55559563	         66.33691002	         -7.30976477	         51.79375430	         83.10878227	        -12.18758569	
          2.44000000	        -32.23786016	          6.80266630	          8.35782977	         -3.51610846	         66.58534828	         -7.37147290	         51.56607815	         83.33523760	        -12.02352530	
          2.45000000	        -32.41800832	          6.86421782	          8.22939144	         -3.48069748	         66.82947361	         -7.43147449	         51.33591858	         83.55084436	        -11.89366853	
          2.46000000	        -32.59749237	          6.92091150	          8.10133522	         -3.44836362	         67.07125826	         -7.49057037	         51.10511821	         83.75466736	        -11.79306460	
          2.47000000	        -32.77819730	          6.97474181	          7.97126181	         -3.41783028	         67.31238711	         -7.54980122	         50.87644982	         83.94622136	        -11.71415068	
          2.48000000	        -32.96192210	          7.02786176	          7.83647590	         -3.38771461	         67.55405843	         -7.61026875	         50.65313112	         84.12563330	        -11.64784611	
          2.49000000	        -33.14994668	          7.08217115	          7.69479516	         -3.35678399	         67.79691466	         -7.67289689	         50.43815121	         84.29368704	        -11.58490197	
          2.50000000	        -33.34269301	          7.13887013	          7.54531851	         -3.32423810	         68.04111449	         -7.73819385	         50.23359146	         84.45173340	        -11.51724966	
          2.51000000	        -33.53958111	          7.19812047	          7.38890902	         -3.28992629	         68.28650766	         -7.80608843	         50.04014189	         84.60149435	        -11.43903176	
